<?xml version="1.0" standalone="no"?><!DOCTYPE svg PUBLIC "-//W3C//DTD SVG 1.1//EN" "http://www.w3.org/Graphics/SVG/1.1/DTD/svg11.dtd"><svg t="1495079720151" class="icon" style="" viewBox="0 0 1024 1024" version="1.1" xmlns="http://www.w3.org/2000/svg" p-id="4100" xmlns:xlink="http://www.w3.org/1999/xlink" width="200" height="200"><defs><style type="text/css"></style></defs><path d="M787.097 666.175c-54.341-34.932-149.434 19.407-149.434 19.407h-135.851c-1.941-199.892-163.018-343.504-209.595-377.192-9.915-7.188-22.531-8.855-36.145-7.369l-5.732-22.317c4.641-2.154 9.28-4.337 14.041-6.429 54.491-24.046 68.592-79.629 17.649-132.363-30.264-31.324-90.304-19.468-131.453 23.561-41.18 43.028-49.062 102.251-17.618 132.362 15.74 15.011 35.418 14.95 57.737 8.218l4.699 18.286c-30.292 16.162-54.551 35.266-54.551 35.266s-3.882 19.407 29.11 71.806c32.993 52.4 132.604 392.143 166.9 432.776 24.593 29.141 549.219 0 549.219 0s17.468-48.517 17.468-91.212c-0.001-42.696-62.104-69.864-116.443-104.799z" p-id="4101"></path></svg>